# This file uses centimeters as units for non-parametric coordinates.

mtllib GreaseA.mtl
g default
v -0.293438 -0.025000 0.976889
v 0.277933 -0.025000 0.969778
v -0.262222 -0.025000 -0.955556
v 0.202042 -0.025000 -0.955556
v 0.401283 -0.025000 0.527800
v -0.401287 -0.025000 0.527033
v -0.503296 -0.025000 0.105901
v 0.330233 -0.025000 0.105901
v -0.428301 -0.025000 -0.466514
v 0.411600 -0.025000 -0.466514
v -0.415504 -0.025000 -0.726702
v 0.361708 -0.025000 -0.726702
v 0.384836 -0.025000 0.808410
v -0.424778 -0.025000 0.808410
v 0.394079 -0.025000 0.681856
v -0.434017 -0.025000 0.681856
v 0.325354 -0.025000 -0.161138
v -0.496605 -0.025000 -0.068674
v 0.375196 -0.025000 0.316851
v -0.395168 -0.025000 0.339617
v -0.080532 -0.025000 1.037142
v -0.083540 -0.025000 -1.004508
v -0.115469 0.025000 -0.726702
v -0.085659 0.025000 -0.466514
v -0.172270 0.025000 -0.123065
v -0.170994 0.025000 0.105902
v -0.087025 0.025000 0.330511
v -0.080261 0.025000 0.555120
v -0.102777 0.025000 0.681856
v -0.100929 0.025000 0.808410
v 0.111145 -0.025000 1.037142
v 0.141956 0.025000 0.808410
v 0.145649 0.025000 0.681856
v 0.160511 0.025000 0.541460
v 0.144087 0.025000 0.323681
v 0.082399 0.025000 0.105902
v 0.070974 0.025000 -0.123065
v 0.171320 0.025000 -0.466514
v 0.131098 0.025000 -0.726702
v 0.067232 -0.025000 -1.004508
v -0.293438 0.000002 0.976889
v -0.289005 0.012501 0.971274
v -0.276880 0.021651 0.955934
v -0.260324 0.025000 0.934980
v -0.072746 0.025000 0.987147
v -0.076643 0.021651 1.012145
v -0.079493 0.012501 1.030444
v -0.080532 0.000002 1.037142
v -0.232035 0.025000 -0.911451
v -0.247126 0.021651 -0.933503
v -0.258177 0.012501 -0.949647
v -0.262222 0.000002 -0.955556
v -0.083540 0.000002 -1.004508
v -0.082733 0.012501 -0.997809
v -0.080536 0.021651 -0.979510
v -0.077541 0.025000 -0.954512
v -0.375784 0.025000 0.792846
v -0.400280 0.021651 0.800628
v -0.418217 0.012501 0.806325
v -0.424778 0.000002 0.808410
v 0.277933 0.000002 0.969778
v 0.273195 0.012501 0.964513
v 0.260263 0.021651 0.950130
v 0.242599 0.025000 0.930482
v 0.384836 0.000002 0.808410
v 0.378267 0.012501 0.806444
v 0.360312 0.021651 0.801072
v 0.335779 0.025000 0.793734
v -0.351488 0.025000 0.535047
v -0.376385 0.021651 0.531040
v -0.394619 0.012501 0.528106
v -0.401287 0.000002 0.527033
v -0.344885 0.025000 0.329238
v -0.370029 0.021651 0.334428
v -0.388435 0.012501 0.338227
v -0.395168 0.000002 0.339617
v 0.401283 0.000002 0.527800
v 0.394566 0.012501 0.528057
v 0.376213 0.021651 0.528757
v 0.351149 0.025000 0.529714
v 0.375196 0.000002 0.316851
v 0.368586 0.012501 0.317962
v 0.350521 0.021651 0.320998
v 0.325846 0.025000 0.325146
v 0.330233 0.000003 0.105902
v 0.323551 0.012501 0.106668
v 0.305283 0.021651 0.108762
v 0.280338 0.025000 0.111622
v 0.325354 0.000002 -0.161138
v 0.318638 0.012501 -0.162006
v 0.300297 0.021651 -0.164376
v 0.275232 0.025000 -0.167614
v -0.503296 0.000003 0.105902
v -0.496538 0.012501 0.104550
v -0.478083 0.021651 0.100857
v -0.452877 0.025000 0.095812
v -0.496605 0.000002 -0.068674
v -0.489925 0.012501 -0.067976
v -0.471689 0.021651 -0.066069
v -0.446770 0.025000 -0.063464
v 0.411600 0.000002 -0.466514
v 0.404779 0.012501 -0.467011
v 0.386148 0.021651 -0.468369
v 0.360693 0.025000 -0.470225
v 0.361708 0.000003 -0.726702
v 0.355276 0.012501 -0.724212
v 0.337711 0.021651 -0.717410
v 0.313713 0.025000 -0.708118
v -0.428301 0.000002 -0.466514
v -0.421568 0.012501 -0.466147
v -0.403172 0.021651 -0.465144
v -0.378040 0.025000 -0.463775
v -0.415504 0.000003 -0.726702
v -0.408674 0.012501 -0.724783
v -0.390020 0.021651 -0.719539
v -0.364540 0.025000 -0.712377
v 0.170643 0.025000 -0.913186
v 0.186340 0.021651 -0.934371
v 0.197836 0.012501 -0.949879
v 0.202042 0.000002 -0.955556
v -0.434017 0.000002 0.681856
v -0.427250 0.012501 0.682604
v -0.408749 0.021651 0.684647
v -0.383486 0.025000 0.687438
v 0.394079 0.000002 0.681856
v 0.387392 0.012501 0.681455
v 0.369129 0.021651 0.680361
v 0.344170 0.025000 0.678867
v 0.059315 0.025000 -0.954512
v 0.063271 0.021651 -0.979510
v 0.066172 0.012501 -0.997809
v 0.067232 0.000002 -1.004508
v 0.111145 0.000002 1.037142
v 0.109776 0.012501 1.030444
v 0.106043 0.021651 1.012145
v 0.100945 0.025000 0.987147
v -0.423212 -0.025000 -0.307378
v 0.388428 -0.025000 -0.344363
v 0.388428 0.000002 -0.344363
v 0.381651 0.012501 -0.345009
v 0.363134 0.021651 -0.346772
v 0.337837 0.025000 -0.349180
v 0.131182 0.025000 -0.329134
v -0.120304 0.025000 -0.329134
v -0.373123 0.025000 -0.303650
v -0.398169 0.021651 -0.305514
v -0.416500 0.012501 -0.306878
v -0.423212 0.000003 -0.307378
v -0.473936 -0.025000 0.217908
v 0.348219 -0.025000 0.190281
v 0.348219 0.000003 0.190281
v 0.341564 0.012501 0.191186
v 0.323380 0.021651 0.193656
v 0.298542 0.025000 0.197031
v 0.107075 0.025000 0.193013
v -0.137407 0.025000 0.195745
v -0.423571 0.025000 0.207703
v -0.448751 0.021651 0.212806
v -0.467188 0.012501 0.216541
v -0.473936 0.000003 0.217908
v -0.364395 -0.025000 -0.841129
v -0.364395 0.000003 -0.841129
v -0.358957 0.012501 -0.837215
v -0.344105 0.021651 -0.826521
v -0.323818 0.025000 -0.811914
v -0.096506 0.025000 -0.840607
v 0.095207 0.025000 -0.840607
v 0.258135 0.025000 -0.810652
v 0.277983 0.021651 -0.825891
v 0.292515 0.012501 -0.837046
v 0.297832 0.000003 -0.841129
v 0.297832 -0.025000 -0.841129
v 0.354496 -0.025000 0.881983
v 0.354496 0.000002 0.881983
v 0.348843 0.012501 0.878368
v 0.333399 0.021651 0.868490
v 0.312300 0.025000 0.854997
v 0.121450 0.025000 0.897779
v -0.086838 0.025000 0.897779
v -0.342943 0.025000 0.867468
v -0.363470 0.021651 0.881837
v -0.378498 0.012501 0.892355
v -0.383997 0.000002 0.896205
v -0.383997 -0.025000 0.896205
vt 0.349768 0.975989
vt 0.127322 0.963799
vt 0.143332 0.939072
vt 0.343576 0.966006
vt 0.220938 0.011918
vt 0.312300 0.002275
vt 0.208257 0.999808
vt 0.280625 0.988347
vt 0.440166 0.355154
vt 0.433719 0.458625
vt 0.011794 0.458539
vt 0.043418 0.341002
vt 0.439336 0.120038
vt 0.458873 0.178655
vt 0.046632 0.174501
vt 0.044844 0.110161
vt 0.420202 0.588152
vt 0.462623 0.741221
vt 0.043048 0.732463
vt 0.002785 0.542044
vt 0.450895 0.739624
vt 0.434168 0.865760
vt 0.052910 0.857317
vt 0.031268 0.733666
vt 0.423254 0.861191
vt 0.213749 0.959604
vt 0.121498 0.973971
vt 0.041592 0.860602
vt 0.303828 0.042101
vt 0.450512 0.116370
vt 0.387002 0.045311
vt 0.055813 0.114524
vt 0.116702 0.027278
vt 0.447074 0.180291
vt 0.462651 0.253842
vt 0.055235 0.251654
vt 0.034817 0.173443
vt 0.421841 0.457843
vt 0.432143 0.587225
vt 0.014545 0.540384
vt 0.000000 0.457615
vt 0.450786 0.253953
vt 0.451980 0.356311
vt 0.055117 0.343638
vt 0.043249 0.251533
vt 0.209998 0.988212
vt 0.080853 0.847642
vt 0.071519 0.728816
vt 0.196856 0.850507
vt 0.042759 0.537951
vt 0.211397 0.727282
vt 0.040195 0.463080
vt 0.172597 0.566100
vt 0.084873 0.349607
vt 0.173781 0.457254
vt 0.084063 0.250465
vt 0.211879 0.351779
vt 0.075053 0.175618
vt 0.215844 0.246292
vt 0.082172 0.126296
vt 0.206655 0.186466
vt 0.138121 0.062337
vt 0.224511 0.040600
vt 0.209412 0.125923
vt 0.219562 0.000000
vt 0.121579 0.037836
vt 0.309874 0.013865
vt 0.393267 0.035560
vt 0.368385 0.067949
vt 0.412513 0.130414
vt 0.322177 0.126811
vt 0.418537 0.183991
vt 0.324091 0.186517
vt 0.422306 0.254305
vt 0.331396 0.252339
vt 0.411829 0.352082
vt 0.324449 0.355312
vt 0.393048 0.455187
vt 0.296417 0.458127
vt 0.390957 0.590240
vt 0.291252 0.566530
vt 0.422426 0.738534
vt 0.333553 0.730304
vt 0.396810 0.849079
vt 0.276345 0.959949
vt 0.311669 0.852788
vt 0.327504 0.941665
vt 0.282552 1.000000
vt 0.125005 0.043746
vt 0.130775 0.052099
vt 0.222980 0.028495
vt 0.221752 0.018688
vt 0.136394 0.949556
vt 0.130877 0.958026
vt 0.210945 0.981450
vt 0.212218 0.971667
vt 0.071045 0.121263
vt 0.062033 0.117184
vt 0.382940 0.050768
vt 0.376502 0.058492
vt 0.433008 0.122365
vt 0.423851 0.125976
vt 0.071890 0.251133
vt 0.062039 0.251547
vt 0.072242 0.347111
vt 0.062047 0.345106
vt 0.444057 0.254032
vt 0.434322 0.254162
vt 0.433452 0.354466
vt 0.423768 0.353424
vt 0.415048 0.457299
vt 0.405211 0.456384
vt 0.413333 0.588650
vt 0.403334 0.589346
vt 0.018481 0.459368
vt 0.028206 0.460981
vt 0.021224 0.539656
vt 0.030864 0.538877
vt 0.444205 0.739072
vt 0.434462 0.738745
vt 0.417019 0.858445
vt 0.407977 0.854271
vt 0.049771 0.731660
vt 0.059497 0.730377
vt 0.059399 0.855202
vt 0.068970 0.851830
vt 0.334416 0.951989
vt 0.339930 0.960332
vt 0.053328 0.174941
vt 0.063050 0.175337
vt 0.440319 0.181207
vt 0.430566 0.182487
vt 0.278090 0.971945
vt 0.279552 0.981658
vt 0.308459 0.020503
vt 0.306381 0.030160
vt 0.031416 0.657274
vt 0.456019 0.678894
vt 0.444192 0.680306
vt 0.437414 0.680611
vt 0.427517 0.680437
vt 0.415287 0.680179
vt 0.317184 0.664168
vt 0.195582 0.662509
vt 0.072418 0.652699
vt 0.060098 0.653705
vt 0.050130 0.654590
vt 0.043270 0.655417
vt 0.012886 0.402103
vt 0.440777 0.418056
vt 0.429028 0.416432
vt 0.422302 0.415707
vt 0.412543 0.414893
vt 0.400479 0.413862
vt 0.307728 0.417072
vt 0.188848 0.414508
vt 0.052290 0.409781
vt 0.040245 0.408357
vt 0.030543 0.407124
vt 0.023993 0.405710
vt 0.068227 0.918480
vt 0.077895 0.911314
vt 0.083255 0.907184
vt 0.090902 0.901131
vt 0.100304 0.893684
vt 0.205463 0.904858
vt 0.293771 0.906094
vt 0.369950 0.896017
vt 0.379075 0.903963
vt 0.386493 0.910407
vt 0.391695 0.914785
vt 0.400964 0.922278
vt 0.433554 0.078601
vt 0.423802 0.085669
vt 0.418399 0.089602
vt 0.410562 0.095282
vt 0.400875 0.102251
vt 0.312770 0.084575
vt 0.217040 0.083325
vt 0.099268 0.092239
vt 0.090119 0.084683
vt 0.082734 0.078491
vt 0.077701 0.074115
vt 0.068976 0.066189
vn 0.000000 1.000000 0.000000
vn 0.000000 1.000000 0.000000
vn 0.000000 1.000000 -0.000000
vn 0.000000 1.000000 0.000000
vn 0.000000 1.000000 0.000000
vn 0.000000 1.000000 0.000000
vn 0.000000 1.000000 -0.000000
vn 0.000000 1.000000 -0.000000
vn 0.000000 1.000000 0.000000
vn 0.000000 1.000000 0.000000
vn 0.000000 1.000000 0.000000
vn 0.000000 1.000000 0.000000
vn 0.000000 1.000000 -0.000000
vn 0.000000 1.000000 -0.000000
vn 0.000000 1.000000 -0.000000
vn 0.000000 1.000000 -0.000000
vn 0.000000 1.000000 -0.000000
vn 0.000000 1.000000 0.000000
vn 0.000000 1.000000 -0.000000
vn 0.000000 1.000000 -0.000000
vn -0.013006 0.999447 0.030622
vn -0.122434 0.953626 0.274968
vn -0.042407 0.956267 0.289404
vn -0.004838 0.999424 0.033578
vn -0.284886 0.735773 0.614392
vn -0.098257 0.742957 0.662088
vn -0.418085 0.169603 0.892435
vn -0.145257 0.171421 0.974431
vn -0.496451 0.172480 -0.850757
vn -0.337771 0.741291 -0.579999
vn -0.098025 0.744106 -0.660831
vn -0.144585 0.172039 -0.974422
vn -0.147903 0.955096 -0.256741
vn -0.042941 0.956489 -0.288593
vn -0.014594 0.999565 -0.025632
vn -0.003864 0.999658 -0.025869
vn -0.959340 0.170776 0.224727
vn -0.655217 0.739884 0.152520
vn -0.662960 0.746506 -0.056683
vn -0.981453 0.172925 -0.082741
vn -0.289315 0.954968 0.065823
vn -0.288026 0.957300 -0.024852
vn -0.012761 0.999915 0.002820
vn -0.013385 0.999910 -0.001177
vn -0.955223 0.190820 0.226134
vn -0.598532 0.788802 0.139827
vn -0.611076 0.740017 0.280999
vn -0.895830 0.169878 0.410646
vn -0.236469 0.970217 0.052558
vn -0.266539 0.955561 0.125938
vn -0.007833 0.999968 0.001622
vn -0.013727 0.999884 0.006675
vn 0.020022 0.999703 -0.013874
vn 0.235167 0.958081 -0.163638
vn 0.171460 0.955252 -0.241032
vn 0.019879 0.999414 -0.027866
vn 0.542745 0.749561 -0.378928
vn 0.388838 0.741562 -0.546709
vn 0.807309 0.174208 -0.563830
vn 0.570201 0.172295 -0.803234
vn -0.147303 0.000000 0.989091
vn 0.184692 0.000000 0.982796
vn 0.182010 0.171079 0.968300
vn -0.146971 0.000000 -0.989141
vn 0.166062 0.171473 -0.971092
vn 0.168947 0.000000 -0.985625
vn 0.972730 0.174364 -0.152950
vn 0.987866 0.000000 -0.155311
vn 0.978029 0.000000 -0.208467
vn 0.962694 0.176395 -0.205196
vn -0.907577 -0.000001 0.419886
vn -0.973478 -0.000000 0.228782
vn 0.966448 0.170905 0.191756
vn 0.980995 0.000000 0.194031
vn 0.998287 0.000000 0.058511
vn 0.982894 0.174932 0.057598
vn -0.996533 0.000000 -0.083196
vn -0.973836 0.000000 0.227253
vn 0.974855 0.183547 0.126365
vn 0.991751 0.000000 0.128180
vn 0.962355 0.000000 0.271796
vn 0.948274 0.172279 0.266638
vn -0.968932 0.182196 -0.167261
vn -0.985580 0.000000 -0.169211
vn -0.981738 0.000000 -0.190238
vn -0.967526 0.170316 -0.186780
vn 0.982959 0.171021 -0.067410
vn 0.997567 0.000000 -0.069716
vn 0.956849 0.000000 -0.290587
vn 0.942632 0.171315 -0.286525
vn -0.970758 0.173430 -0.165988
vn -0.985760 0.000000 -0.168161
vn -0.999831 0.000000 -0.018378
vn -0.984058 0.176904 -0.018319
vn 0.820126 0.000000 -0.572184
vn 0.578104 0.000000 -0.815963
vn 0.000000 1.000000 -0.000000
vn 0.000000 1.000000 0.000000
vn 0.004396 0.999656 -0.025852
vn -0.502829 0.000000 -0.864386
vn -0.830853 0.000000 -0.556491
vn -0.817758 0.174202 -0.548567
vn 0.000000 1.000000 -0.000000
vn 0.000000 1.000000 -0.000000
vn 0.006140 0.999404 0.033976
vn 0.537614 0.000000 0.843191
vn 0.833656 0.000000 0.552284
vn 0.820749 0.173504 0.544304
vn 0.531807 0.170987 0.829425
vn -0.776889 0.173116 0.605372
vn -0.788668 0.000000 0.614819
vn -0.421216 0.000000 0.906960
vn 0.998665 0.000000 -0.051664
vn 0.983562 0.173251 -0.050883
vn -0.977335 0.180592 -0.110469
vn -0.993619 0.000000 -0.112790
vn 0.981610 0.179908 -0.063843
vn 0.997890 0.000000 -0.064928
vn -0.996886 -0.000001 0.078854
vn -0.981706 0.173211 0.079062
vn -0.015972 0.999817 -0.010521
vn -0.012063 0.999927 -0.000233
vn -0.013045 0.999913 -0.002024
vn -0.013167 0.999910 -0.002672
vn -0.010087 0.999948 -0.001663
vn -0.011959 0.999928 0.000915
vn -0.010255 0.999947 -0.001143
vn -0.014397 0.999828 0.011678
vn 0.018852 0.999742 0.012709
vn 0.019015 0.999329 0.031314
vn 0.016450 0.999860 0.002956
vn 0.015538 0.999879 0.000906
vn 0.017120 0.999853 -0.000887
vn 0.015927 0.999870 -0.002515
vn 0.014954 0.999883 -0.003187
vn 0.014672 0.999892 -0.000942
vn 0.012895 0.999916 0.001578
vn 0.016492 0.999853 0.004777
vn 0.018926 0.999820 -0.001423
vn 0.016996 0.999843 -0.005097
vn -0.525964 0.744022 0.412060
vn -0.230539 0.955669 0.183161
vn 0.157831 0.954463 0.253158
vn 0.053566 0.955313 0.290702
vn 0.362424 0.738798 0.568178
vn 0.123378 0.740714 0.660394
vn 0.242660 0.956438 0.162302
vn 0.554503 0.745903 0.368991
vn -0.637199 0.767375 -0.071504
vn -0.263505 0.964208 -0.029451
vn 0.285269 0.958334 -0.014768
vn 0.280204 0.959801 0.016372
vn 0.662051 0.748676 -0.034258
vn 0.656597 0.753262 0.038433
vn 0.278330 0.959484 -0.043865
vn 0.651128 0.752019 -0.102467
vn 0.269462 0.961297 -0.057434
vn 0.638452 0.757536 -0.136082
vn 0.265676 0.963910 -0.017148
vn 0.256109 0.966110 0.032256
vn 0.641464 0.766024 -0.041603
vn 0.628207 0.773831 0.080882
vn -0.288390 0.957245 0.022671
vn -0.287447 0.956100 -0.056976
vn -0.663194 0.746521 0.053669
vn -0.658888 0.741282 -0.127935
vn -0.256359 0.965608 -0.043379
vn -0.627158 0.771358 -0.108075
vn 0.276693 0.957709 0.078964
vn 0.640511 0.746466 0.180373
vn 0.294296 0.955480 -0.021142
vn 0.280762 0.956027 -0.084761
vn 0.670154 0.740794 -0.046010
vn 0.641285 0.742207 -0.194637
vn -0.277725 0.960646 -0.005297
vn -0.286738 0.956871 -0.046691
vn -0.653319 0.756982 -0.012375
vn -0.656773 0.745905 -0.110797
vn -0.241359 0.957062 -0.160556
vn -0.551637 0.747736 -0.369579
vn 0.112711 0.741871 -0.661003
vn 0.049472 0.955633 -0.290375
vn 0.289993 0.955462 0.054741
vn 0.659171 0.740831 0.129088
s 1
g Grease
usemtl initialShadingGroup
f 155/155/1 156/156/2 27/57/3 35/77/4
f 29/61/5 30/64/6 32/71/7 33/73/8
f 143/143/9 144/144/10 25/53/11 37/81/12
f 23/49/13 24/51/14 38/83/15 39/86/16
f 28/59/17 29/61/5 33/73/8 34/75/18
f 25/53/11 26/55/19 36/79/20 37/81/12
f 27/57/3 28/59/17 34/75/18 35/77/4
f 44/62/21 43/90/22 46/91/23 45/63/24
f 43/90/22 42/89/25 47/92/26 46/91/23
f 42/89/25 41/66/27 48/5/28 47/92/26
f 52/2/29 51/94/30 54/95/31 53/46/32
f 51/94/30 50/93/33 55/96/34 54/95/31
f 50/93/33 49/3/35 56/26/36 55/96/34
f 60/32/37 59/98/38 122/129/39 121/15/40
f 59/98/38 58/97/41 123/130/42 122/129/39
f 58/97/41 57/60/43 124/58/44 123/130/42
f 76/44/45 75/106/46 159/159/47 160/160/48
f 75/106/46 74/105/49 158/158/50 159/159/47
f 74/105/49 73/54/51 157/157/52 158/158/50
f 168/168/53 169/169/54 118/127/55 117/87/56
f 169/169/54 170/170/57 119/128/58 118/127/55
f 170/170/57 171/171/59 120/4/60 119/128/58
f 48/5/28 21/65/61 31/6/62 133/67/63
f 22/7/64 53/46/32 132/8/65 40/88/66
f 81/9/67 19/43/68 150/150/69 151/151/70
f 160/160/48 149/149/71 20/12/72 76/44/45
f 65/13/73 13/30/74 15/14/75 125/34/76
f 121/15/40 16/37/77 14/16/78 60/32/37
f 89/17/79 17/39/80 138/138/81 139/139/82
f 148/148/83 137/137/84 18/20/85 97/40/86
f 101/21/87 10/18/88 12/22/89 105/25/90
f 113/23/91 11/28/92 9/24/93 109/19/94
f 171/171/59 172/172/95 4/1/96 120/4/60
f 56/26/36 166/166/97 167/167/98 129/85/99
f 3/27/100 161/161/101 162/162/102 52/2/29
f 178/178/103 179/179/104 45/63/24 136/29/105
f 2/68/106 173/173/107 174/174/108 61/31/109
f 183/183/110 184/184/111 1/33/112 41/66/27
f 125/34/76 15/14/75 5/35/113 77/42/114
f 72/36/115 6/45/116 16/37/77 121/15/40
f 85/38/117 8/10/118 17/39/80 89/17/79
f 97/40/86 18/20/85 7/41/119 93/11/120
f 77/42/114 5/35/113 19/43/68 81/9/67
f 76/44/45 20/12/72 6/45/116 72/36/115
f 52/2/29 53/46/32 22/7/64 3/27/100
f 165/165/121 166/166/97 56/26/36 49/3/35
f 112/48/122 24/51/14 23/49/13 116/47/123
f 100/50/124 25/53/11 144/144/10 145/145/125
f 96/52/126 26/55/19 25/53/11 100/50/124
f 73/54/51 27/57/3 156/156/2 157/157/52
f 69/56/127 28/59/17 27/57/3 73/54/51
f 124/58/44 29/61/5 28/59/17 69/56/127
f 57/60/43 30/64/6 29/61/5 124/58/44
f 44/62/21 45/63/24 179/179/104 180/180/128
f 1/33/112 21/65/61 48/5/28 41/66/27
f 133/67/63 31/6/62 2/68/106 61/31/109
f 177/177/129 178/178/103 136/29/105 64/69/130
f 33/73/8 32/71/7 68/70/131 128/72/132
f 34/75/18 33/73/8 128/72/132 80/74/133
f 35/77/4 34/75/18 80/74/133 84/76/134
f 154/154/135 155/155/1 35/77/4 84/76/134
f 37/81/12 36/79/20 88/78/136 92/80/137
f 142/142/138 143/143/9 37/81/12 92/80/137
f 39/86/16 38/83/15 104/82/139 108/84/140
f 129/85/99 167/167/98 168/168/53 117/87/56
f 40/88/66 132/8/65 120/4/60 4/1/96
f 41/66/27 42/89/25 182/182/141 183/183/110
f 42/89/25 43/90/22 181/181/142 182/182/141
f 43/90/22 44/62/21 180/180/128 181/181/142
f 63/100/143 64/69/130 136/29/105 135/136/144
f 61/31/109 62/99/145 134/135/146 133/67/63
f 62/99/145 63/100/143 135/136/144 134/135/146
f 64/69/130 63/100/143 176/176/147 177/177/129
f 63/100/143 62/99/145 175/175/148 176/176/147
f 62/99/145 61/31/109 174/174/108 175/175/148
f 72/36/115 71/104/149 75/106/46 76/44/45
f 71/104/149 70/103/150 74/105/49 75/106/46
f 70/103/150 69/56/127 73/54/51 74/105/49
f 79/108/151 80/74/133 128/72/132 127/132/152
f 77/42/114 78/107/153 126/131/154 125/34/76
f 78/107/153 79/108/151 127/132/152 126/131/154
f 80/74/133 79/108/151 83/110/155 84/76/134
f 79/108/151 78/107/153 82/109/156 83/110/155
f 78/107/153 77/42/114 81/9/67 82/109/156
f 84/76/134 83/110/155 153/153/157 154/154/135
f 83/110/155 82/109/156 152/152/158 153/153/157
f 82/109/156 81/9/67 151/151/70 152/152/158
f 88/78/136 87/112/159 91/114/160 92/80/137
f 87/112/159 86/111/161 90/113/162 91/114/160
f 86/111/161 85/38/117 89/17/79 90/113/162
f 95/116/163 96/52/126 100/50/124 99/118/164
f 93/11/120 94/115/165 98/117/166 97/40/86
f 94/115/165 95/116/163 99/118/164 98/117/166
f 99/118/164 100/50/124 145/145/125 146/146/167
f 97/40/86 98/117/166 147/147/168 148/148/83
f 98/117/166 99/118/164 146/146/167 147/147/168
f 92/80/137 91/114/160 141/141/169 142/142/138
f 91/114/160 90/113/162 140/140/170 141/141/169
f 90/113/162 89/17/79 139/139/82 140/140/170
f 104/82/139 103/120/171 107/122/172 108/84/140
f 103/120/171 102/119/173 106/121/174 107/122/172
f 102/119/173 101/21/87 105/25/90 106/121/174
f 111/124/175 112/48/122 116/47/123 115/126/176
f 109/19/94 110/123/177 114/125/178 113/23/91
f 110/123/177 111/124/175 115/126/176 114/125/178
f 49/3/35 50/93/33 164/164/179 165/165/121
f 50/93/33 51/94/30 163/163/180 164/164/179
f 51/94/30 52/2/29 162/162/102 163/163/180
f 119/128/58 120/4/60 132/8/65 131/134/181
f 117/87/56 118/127/55 130/133/182 129/85/99
f 118/127/55 119/128/58 131/134/181 130/133/182
f 69/56/127 70/103/150 123/130/42 124/58/44
f 70/103/150 71/104/149 122/129/39 123/130/42
f 71/104/149 72/36/115 121/15/40 122/129/39
f 68/70/131 67/102/183 127/132/152 128/72/132
f 67/102/183 66/101/184 126/131/154 127/132/152
f 66/101/184 65/13/73 125/34/76 126/131/154
f 53/46/32 54/95/31 131/134/181 132/8/65
f 54/95/31 55/96/34 130/133/182 131/134/181
f 55/96/34 56/26/36 129/85/99 130/133/182
f 45/63/24 46/91/23 135/136/144 136/29/105
f 46/91/23 47/92/26 134/135/146 135/136/144
f 47/92/26 48/5/28 133/67/63 134/135/146
f 139/139/82 138/138/81 10/18/88 101/21/87
f 140/140/170 139/139/82 101/21/87 102/119/173
f 141/141/169 140/140/170 102/119/173 103/120/171
f 142/142/138 141/141/169 103/120/171 104/82/139
f 38/83/15 143/143/9 142/142/138 104/82/139
f 24/51/14 144/144/10 143/143/9 38/83/15
f 145/145/125 144/144/10 24/51/14 112/48/122
f 146/146/167 145/145/125 112/48/122 111/124/175
f 147/147/168 146/146/167 111/124/175 110/123/177
f 148/148/83 147/147/168 110/123/177 109/19/94
f 109/19/94 9/24/93 137/137/84 148/148/83
f 151/151/70 150/150/69 8/10/118 85/38/117
f 152/152/158 151/151/70 85/38/117 86/111/161
f 153/153/157 152/152/158 86/111/161 87/112/159
f 154/154/135 153/153/157 87/112/159 88/78/136
f 36/79/20 155/155/1 154/154/135 88/78/136
f 26/55/19 156/156/2 155/155/1 36/79/20
f 157/157/52 156/156/2 26/55/19 96/52/126
f 158/158/50 157/157/52 96/52/126 95/116/163
f 159/159/47 158/158/50 95/116/163 94/115/165
f 160/160/48 159/159/47 94/115/165 93/11/120
f 93/11/120 7/41/119 149/149/71 160/160/48
f 162/162/102 161/161/101 11/28/92 113/23/91
f 163/163/180 162/162/102 113/23/91 114/125/178
f 164/164/179 163/163/180 114/125/178 115/126/176
f 165/165/121 164/164/179 115/126/176 116/47/123
f 116/47/123 23/49/13 166/166/97 165/165/121
f 167/167/98 166/166/97 23/49/13 39/86/16
f 168/168/53 167/167/98 39/86/16 108/84/140
f 108/84/140 107/122/172 169/169/54 168/168/53
f 107/122/172 106/121/174 170/170/57 169/169/54
f 106/121/174 105/25/90 171/171/59 170/170/57
f 105/25/90 12/22/89 172/172/95 171/171/59
f 174/174/108 173/173/107 13/30/74 65/13/73
f 175/175/148 174/174/108 65/13/73 66/101/184
f 176/176/147 175/175/148 66/101/184 67/102/183
f 177/177/129 176/176/147 67/102/183 68/70/131
f 32/71/7 178/178/103 177/177/129 68/70/131
f 30/64/6 179/179/104 178/178/103 32/71/7
f 180/180/128 179/179/104 30/64/6 57/60/43
f 181/181/142 180/180/128 57/60/43 58/97/41
f 182/182/141 181/181/142 58/97/41 59/98/38
f 183/183/110 182/182/141 59/98/38 60/32/37
f 60/32/37 14/16/78 184/184/111 183/183/110
