# File exported by Houdini 18.0.348 (www.sidefx.com)
# 96 points
# 384 vertices
# 104 primitives
# Bounds: [-0.5, -0.5, -0.5] to [6.5, 0.5, 0.5]
g 
v 0.300000012 -0.300000012 -0.5
v 0.300000012 0.300000012 -0.5
v -0.300000012 0.300000012 -0.5
v -0.300000012 -0.300000012 -0.5
v 0.5 0.300000012 -0.300000012
v 0.5 -0.300000012 -0.300000012
v 0.5 -0.300000012 0.300000012
v 0.5 0.300000012 0.300000012
v -0.300000012 0.5 -0.300000012
v 0.300000012 0.5 -0.300000012
v 0.300000012 0.5 0.300000012
v -0.300000012 0.5 0.300000012
v -0.5 -0.300000012 -0.300000012
v -0.5 0.300000012 -0.300000012
v -0.5 0.300000012 0.300000012
v -0.5 -0.300000012 0.300000012
v 0.300000012 -0.5 -0.300000012
v -0.300000012 -0.5 -0.300000012
v -0.300000012 -0.5 0.300000012
v 0.300000012 -0.5 0.300000012
v 0.300000012 0.300000012 0.5
v 0.300000012 -0.300000012 0.5
v -0.300000012 -0.300000012 0.5
v -0.300000012 0.300000012 0.5
v 2.29999995 -0.300000012 -0.5
v 2.29999995 0.300000012 -0.5
v 1.70000005 0.300000012 -0.5
v 1.70000005 -0.300000012 -0.5
v 2.5 0.300000012 -0.300000012
v 2.5 -0.300000012 -0.300000012
v 2.5 -0.300000012 0.300000012
v 2.5 0.300000012 0.300000012
v 1.70000005 0.5 -0.300000012
v 2.29999995 0.5 -0.300000012
v 2.29999995 0.5 0.300000012
v 1.70000005 0.5 0.300000012
v 1.5 -0.300000012 -0.300000012
v 1.5 0.300000012 -0.300000012
v 1.5 0.300000012 0.300000012
v 1.5 -0.300000012 0.300000012
v 2.29999995 -0.5 -0.300000012
v 1.70000005 -0.5 -0.300000012
v 1.70000005 -0.5 0.300000012
v 2.29999995 -0.5 0.300000012
v 2.29999995 0.300000012 0.5
v 2.29999995 -0.300000012 0.5
v 1.70000005 -0.300000012 0.5
v 1.70000005 0.300000012 0.5
v 4.30000019 -0.300000012 -0.5
v 4.30000019 0.300000012 -0.5
v 3.70000005 0.300000012 -0.5
v 3.70000005 -0.300000012 -0.5
v 4.5 0.300000012 -0.300000012
v 4.5 -0.300000012 -0.300000012
v 4.5 -0.300000012 0.300000012
v 4.5 0.300000012 0.300000012
v 3.70000005 0.5 -0.300000012
v 4.30000019 0.5 -0.300000012
v 4.30000019 0.5 0.300000012
v 3.70000005 0.5 0.300000012
v 3.5 -0.300000012 -0.300000012
v 3.5 0.300000012 -0.300000012
v 3.5 0.300000012 0.300000012
v 3.5 -0.300000012 0.300000012
v 4.30000019 -0.5 -0.300000012
v 3.70000005 -0.5 -0.300000012
v 3.70000005 -0.5 0.300000012
v 4.30000019 -0.5 0.300000012
v 4.30000019 0.300000012 0.5
v 4.30000019 -0.300000012 0.5
v 3.70000005 -0.300000012 0.5
v 3.70000005 0.300000012 0.5
v 6.30000019 -0.300000012 -0.5
v 6.30000019 0.300000012 -0.5
v 5.69999981 0.300000012 -0.5
v 5.69999981 -0.300000012 -0.5
v 6.5 0.300000012 -0.300000012
v 6.5 -0.300000012 -0.300000012
v 6.5 -0.300000012 0.300000012
v 6.5 0.300000012 0.300000012
v 5.69999981 0.5 -0.300000012
v 6.30000019 0.5 -0.300000012
v 6.30000019 0.5 0.300000012
v 5.69999981 0.5 0.300000012
v 5.5 -0.300000012 -0.300000012
v 5.5 0.300000012 -0.300000012
v 5.5 0.300000012 0.300000012
v 5.5 -0.300000012 0.300000012
v 6.30000019 -0.5 -0.300000012
v 5.69999981 -0.5 -0.300000012
v 5.69999981 -0.5 0.300000012
v 6.30000019 -0.5 0.300000012
v 6.30000019 0.300000012 0.5
v 6.30000019 -0.300000012 0.5
v 5.69999981 -0.300000012 0.5
v 5.69999981 0.300000012 0.5
vn -0 -0 -1
vn 0 -0 -1
vn -0 -0 -1
vn -0 0 -1
vn 1 -0 -0
vn 1 -0 -0
vn 1 0 0
vn 1 -0 -0
vn -0 -0 1
vn 0 0 1
vn -0 -0 1
vn -0 -0 1
vn -1 0 -0
vn -1 -0 -0
vn -1 -0 0
vn -1 -0 -0
vn 0 -1 -0
vn -0 -1 -0
vn -0 -1 0
vn -0 -1 -0
vn -0 1 -0
vn -0 1 -0
vn 0 1 0
vn -0 1 -0
vn -0 0.707106829 -0.707106829
vn -0 0.707106829 -0.707106829
vn -0 0.707106829 -0.707106829
vn -0 0.707106829 -0.707106829
vn -0.707106829 0 -0.707106829
vn -0.707106829 -0 -0.707106829
vn -0.707106829 -0 -0.707106829
vn -0.707106829 0 -0.707106829
vn -0 -0.707106829 -0.707106829
vn 0 -0.707106829 -0.707106829
vn 0 -0.707106829 -0.707106829
vn -0 -0.707106829 -0.707106829
vn 0.707106829 -0 -0.707106829
vn 0.707106829 -0 -0.707106829
vn 0.707106829 -0 -0.707106829
vn 0.707106829 -0 -0.707106829
vn 0.707106829 -0.707106829 -0
vn 0.707106829 -0.707106829 -0
vn 0.707106829 -0.707106829 -0
vn 0.707106829 -0.707106829 -0
vn 0.707106829 0 0.707106829
vn 0.707106829 -0 0.707106829
vn 0.707106829 -0 0.707106829
vn 0.707106829 0 0.707106829
vn 0.707106829 0.707106829 -0
vn 0.707106829 0.707106829 0
vn 0.707106829 0.707106829 0
vn 0.707106829 0.707106829 -0
vn -0 0.707106829 0.707106829
vn 0 0.707106829 0.707106829
vn 0 0.707106829 0.707106829
vn -0 0.707106829 0.707106829
vn -0.707106829 0.707106829 -0
vn -0.707106829 0.707106829 -0
vn -0.707106829 0.707106829 -0
vn -0.707106829 0.707106829 -0
vn -0.707106829 -0 0.707106829
vn -0.707106829 -0 0.707106829
vn -0.707106829 -0 0.707106829
vn -0.707106829 -0 0.707106829
vn -0.707106829 -0.707106829 0
vn -0.707106829 -0.707106829 -0
vn -0.707106829 -0.707106829 -0
vn -0.707106829 -0.707106829 0
vn -0 -0.707106829 0.707106829
vn -0 -0.707106829 0.707106829
vn -0 -0.707106829 0.707106829
vn -0 -0.707106829 0.707106829
vn 0.577350259 -0.577350259 -0.577350259
vn 0.577350259 -0.577350259 -0.577350259
vn 0.577350259 -0.577350259 -0.577350259
vn 0.577350259 0.577350259 -0.577350259
vn 0.577350259 0.577350259 -0.577350259
vn 0.577350259 0.577350259 -0.577350259
vn -0.577350259 0.577350259 -0.577350259
vn -0.577350259 0.577350259 -0.577350259
vn -0.577350259 0.577350259 -0.577350259
vn -0.577350259 -0.577350259 -0.577350259
vn -0.577350259 -0.577350259 -0.577350259
vn -0.577350259 -0.577350259 -0.577350259
vn 0.577350259 -0.577350259 0.577350259
vn 0.577350259 -0.577350259 0.577350259
vn 0.577350259 -0.577350259 0.577350259
vn 0.577350259 0.577350259 0.577350259
vn 0.577350259 0.577350259 0.577350259
vn 0.577350259 0.577350259 0.577350259
vn -0.577350259 -0.577350259 0.577350259
vn -0.577350259 -0.577350259 0.577350259
vn -0.577350259 -0.577350259 0.577350259
vn -0.577350259 0.577350259 0.577350259
vn -0.577350259 0.577350259 0.577350259
vn -0.577350259 0.577350259 0.577350259
vn -0 -0 -1
vn 0 -0 -1
vn -0 -0 -1
vn -0 0 -1
vn 1 -0 -0
vn 1 -0 -0
vn 1 0 0
vn 1 -0 -0
vn -0 -0 1
vn 0 0 1
vn -0 -0 1
vn -0 -0 1
vn -1 0 -0
vn -1 -0 -0
vn -1 -0 0
vn -1 -0 -0
vn 0 -1 -0
vn -0 -1 -0
vn -0 -1 0
vn -0 -1 -0
vn -0 1 -0
vn -0 1 -0
vn 0 1 0
vn -0 1 -0
vn -0 0.707106829 -0.707106829
vn -0 0.707106829 -0.707106829
vn -0 0.707106829 -0.707106829
vn -0 0.707106829 -0.707106829
vn -0.707106829 0 -0.707106829
vn -0.707106829 -0 -0.707106829
vn -0.707106829 -0 -0.707106829
vn -0.707106829 0 -0.707106829
vn -0 -0.707106829 -0.707106829
vn 0 -0.707106829 -0.707106829
vn 0 -0.707106829 -0.707106829
vn -0 -0.707106829 -0.707106829
vn 0.707106829 -0 -0.707106829
vn 0.707106829 -0 -0.707106829
vn 0.707106829 -0 -0.707106829
vn 0.707106829 -0 -0.707106829
vn 0.707106829 -0.707106829 -0
vn 0.707106829 -0.707106829 -0
vn 0.707106829 -0.707106829 -0
vn 0.707106829 -0.707106829 -0
vn 0.707106829 0 0.707106829
vn 0.707106829 -0 0.707106829
vn 0.707106829 -0 0.707106829
vn 0.707106829 0 0.707106829
vn 0.707106829 0.707106829 -0
vn 0.707106829 0.707106829 0
vn 0.707106829 0.707106829 0
vn 0.707106829 0.707106829 -0
vn -0 0.707106829 0.707106829
vn 0 0.707106829 0.707106829
vn 0 0.707106829 0.707106829
vn -0 0.707106829 0.707106829
vn -0.707106829 0.707106829 -0
vn -0.707106829 0.707106829 -0
vn -0.707106829 0.707106829 -0
vn -0.707106829 0.707106829 -0
vn -0.707106829 -0 0.707106829
vn -0.707106829 -0 0.707106829
vn -0.707106829 -0 0.707106829
vn -0.707106829 -0 0.707106829
vn -0.707106829 -0.707106829 0
vn -0.707106829 -0.707106829 -0
vn -0.707106829 -0.707106829 -0
vn -0.707106829 -0.707106829 0
vn -0 -0.707106829 0.707106829
vn -0 -0.707106829 0.707106829
vn -0 -0.707106829 0.707106829
vn -0 -0.707106829 0.707106829
vn 0.577350259 -0.577350259 -0.577350259
vn 0.577350259 -0.577350259 -0.577350259
vn 0.577350259 -0.577350259 -0.577350259
vn 0.577350259 0.577350259 -0.577350259
vn 0.577350259 0.577350259 -0.577350259
vn 0.577350259 0.577350259 -0.577350259
vn -0.577350259 0.577350259 -0.577350259
vn -0.577350259 0.577350259 -0.577350259
vn -0.577350259 0.577350259 -0.577350259
vn -0.577350259 -0.577350259 -0.577350259
vn -0.577350259 -0.577350259 -0.577350259
vn -0.577350259 -0.577350259 -0.577350259
vn 0.577350259 -0.577350259 0.577350259
vn 0.577350259 -0.577350259 0.577350259
vn 0.577350259 -0.577350259 0.577350259
vn 0.577350259 0.577350259 0.577350259
vn 0.577350259 0.577350259 0.577350259
vn 0.577350259 0.577350259 0.577350259
vn -0.577350259 -0.577350259 0.577350259
vn -0.577350259 -0.577350259 0.577350259
vn -0.577350259 -0.577350259 0.577350259
vn -0.577350259 0.577350259 0.577350259
vn -0.577350259 0.577350259 0.577350259
vn -0.577350259 0.577350259 0.577350259
vn -0 -0 -1
vn 0 -0 -1
vn -0 -0 -1
vn -0 0 -1
vn 1 -0 -0
vn 1 -0 -0
vn 1 0 0
vn 1 -0 -0
vn -0 -0 1
vn 0 0 1
vn -0 -0 1
vn -0 -0 1
vn -1 0 -0
vn -1 -0 -0
vn -1 -0 0
vn -1 -0 -0
vn 0 -1 -0
vn -0 -1 -0
vn -0 -1 0
vn -0 -1 -0
vn -0 1 -0
vn -0 1 -0
vn 0 1 0
vn -0 1 -0
vn -0 0.707106829 -0.707106829
vn -0 0.707106829 -0.707106829
vn -0 0.707106829 -0.707106829
vn -0 0.707106829 -0.707106829
vn -0.707106829 0 -0.707106829
vn -0.707106829 -0 -0.707106829
vn -0.707106829 -0 -0.707106829
vn -0.707106829 0 -0.707106829
vn -0 -0.707106829 -0.707106829
vn 0 -0.707106829 -0.707106829
vn 0 -0.707106829 -0.707106829
vn -0 -0.707106829 -0.707106829
vn 0.707106829 -0 -0.707106829
vn 0.707106829 -0 -0.707106829
vn 0.707106829 -0 -0.707106829
vn 0.707106829 -0 -0.707106829
vn 0.707106829 -0.707106829 -0
vn 0.707106829 -0.707106829 -0
vn 0.707106829 -0.707106829 -0
vn 0.707106829 -0.707106829 -0
vn 0.707106829 0 0.707106829
vn 0.707106829 -0 0.707106829
vn 0.707106829 -0 0.707106829
vn 0.707106829 0 0.707106829
vn 0.707106829 0.707106829 -0
vn 0.707106829 0.707106829 0
vn 0.707106829 0.707106829 0
vn 0.707106829 0.707106829 -0
vn -0 0.707106829 0.707106829
vn 0 0.707106829 0.707106829
vn 0 0.707106829 0.707106829
vn -0 0.707106829 0.707106829
vn -0.707106829 0.707106829 -0
vn -0.707106829 0.707106829 -0
vn -0.707106829 0.707106829 -0
vn -0.707106829 0.707106829 -0
vn -0.707106829 -0 0.707106829
vn -0.707106829 -0 0.707106829
vn -0.707106829 -0 0.707106829
vn -0.707106829 -0 0.707106829
vn -0.707106829 -0.707106829 0
vn -0.707106829 -0.707106829 -0
vn -0.707106829 -0.707106829 -0
vn -0.707106829 -0.707106829 0
vn -0 -0.707106829 0.707106829
vn -0 -0.707106829 0.707106829
vn -0 -0.707106829 0.707106829
vn -0 -0.707106829 0.707106829
vn 0.577350259 -0.577350259 -0.577350259
vn 0.577350259 -0.577350259 -0.577350259
vn 0.577350259 -0.577350259 -0.577350259
vn 0.577350259 0.577350259 -0.577350259
vn 0.577350259 0.577350259 -0.577350259
vn 0.577350259 0.577350259 -0.577350259
vn -0.577350259 0.577350259 -0.577350259
vn -0.577350259 0.577350259 -0.577350259
vn -0.577350259 0.577350259 -0.577350259
vn -0.577350259 -0.577350259 -0.577350259
vn -0.577350259 -0.577350259 -0.577350259
vn -0.577350259 -0.577350259 -0.577350259
vn 0.577350259 -0.577350259 0.577350259
vn 0.577350259 -0.577350259 0.577350259
vn 0.577350259 -0.577350259 0.577350259
vn 0.577350259 0.577350259 0.577350259
vn 0.577350259 0.577350259 0.577350259
vn 0.577350259 0.577350259 0.577350259
vn -0.577350259 -0.577350259 0.577350259
vn -0.577350259 -0.577350259 0.577350259
vn -0.577350259 -0.577350259 0.577350259
vn -0.577350259 0.577350259 0.577350259
vn -0.577350259 0.577350259 0.577350259
vn -0.577350259 0.577350259 0.577350259
vn -0 -0 -1
vn 0 -0 -1
vn -0 -0 -1
vn -0 0 -1
vn 1 -0 -0
vn 1 -0 -0
vn 1 0 0
vn 1 -0 -0
vn -0 -0 1
vn 0 0 1
vn -0 -0 1
vn -0 -0 1
vn -1 0 -0
vn -1 -0 -0
vn -1 -0 0
vn -1 -0 -0
vn 0 -1 -0
vn -0 -1 -0
vn -0 -1 0
vn -0 -1 -0
vn -0 1 -0
vn -0 1 -0
vn 0 1 0
vn -0 1 -0
vn -0 0.707106829 -0.707106829
vn -0 0.707106829 -0.707106829
vn -0 0.707106829 -0.707106829
vn -0 0.707106829 -0.707106829
vn -0.707106829 0 -0.707106829
vn -0.707106829 -0 -0.707106829
vn -0.707106829 -0 -0.707106829
vn -0.707106829 0 -0.707106829
vn -0 -0.707106829 -0.707106829
vn 0 -0.707106829 -0.707106829
vn 0 -0.707106829 -0.707106829
vn -0 -0.707106829 -0.707106829
vn 0.707106829 -0 -0.707106829
vn 0.707106829 -0 -0.707106829
vn 0.707106829 -0 -0.707106829
vn 0.707106829 -0 -0.707106829
vn 0.707106829 -0.707106829 -0
vn 0.707106829 -0.707106829 -0
vn 0.707106829 -0.707106829 -0
vn 0.707106829 -0.707106829 -0
vn 0.707106829 0 0.707106829
vn 0.707106829 -0 0.707106829
vn 0.707106829 -0 0.707106829
vn 0.707106829 0 0.707106829
vn 0.707106829 0.707106829 -0
vn 0.707106829 0.707106829 0
vn 0.707106829 0.707106829 0
vn 0.707106829 0.707106829 -0
vn -0 0.707106829 0.707106829
vn 0 0.707106829 0.707106829
vn 0 0.707106829 0.707106829
vn -0 0.707106829 0.707106829
vn -0.707106829 0.707106829 -0
vn -0.707106829 0.707106829 -0
vn -0.707106829 0.707106829 -0
vn -0.707106829 0.707106829 -0
vn -0.707106829 -0 0.707106829
vn -0.707106829 -0 0.707106829
vn -0.707106829 -0 0.707106829
vn -0.707106829 -0 0.707106829
vn -0.707106829 -0.707106829 0
vn -0.707106829 -0.707106829 -0
vn -0.707106829 -0.707106829 -0
vn -0.707106829 -0.707106829 0
vn -0 -0.707106829 0.707106829
vn -0 -0.707106829 0.707106829
vn -0 -0.707106829 0.707106829
vn -0 -0.707106829 0.707106829
vn 0.577350259 -0.577350259 -0.577350259
vn 0.577350259 -0.577350259 -0.577350259
vn 0.577350259 -0.577350259 -0.577350259
vn 0.577350259 0.577350259 -0.577350259
vn 0.577350259 0.577350259 -0.577350259
vn 0.577350259 0.577350259 -0.577350259
vn -0.577350259 0.577350259 -0.577350259
vn -0.577350259 0.577350259 -0.577350259
vn -0.577350259 0.577350259 -0.577350259
vn -0.577350259 -0.577350259 -0.577350259
vn -0.577350259 -0.577350259 -0.577350259
vn -0.577350259 -0.577350259 -0.577350259
vn 0.577350259 -0.577350259 0.577350259
vn 0.577350259 -0.577350259 0.577350259
vn 0.577350259 -0.577350259 0.577350259
vn 0.577350259 0.577350259 0.577350259
vn 0.577350259 0.577350259 0.577350259
vn 0.577350259 0.577350259 0.577350259
vn -0.577350259 -0.577350259 0.577350259
vn -0.577350259 -0.577350259 0.577350259
vn -0.577350259 -0.577350259 0.577350259
vn -0.577350259 0.577350259 0.577350259
vn -0.577350259 0.577350259 0.577350259
vn -0.577350259 0.577350259 0.577350259
g 
f 1//1 4//2 3//3 2//4
f 7//5 6//6 5//7 8//8
f 23//9 22//10 21//11 24//12
f 13//13 16//14 15//15 14//16
f 20//17 19//18 18//19 17//20
f 10//21 9//22 12//23 11//24
f 3//25 9//26 10//27 2//28
f 4//29 13//30 14//31 3//32
f 1//33 17//34 18//35 4//36
f 2//37 5//38 6//39 1//40
f 7//41 20//42 17//43 6//44
f 8//45 21//46 22//47 7//48
f 5//49 10//50 11//51 8//52
f 12//53 24//54 21//55 11//56
f 9//57 14//58 15//59 12//60
f 16//61 23//62 24//63 15//64
f 13//65 18//66 19//67 16//68
f 20//69 22//70 23//71 19//72
f 1//73 6//74 17//75
f 10//76 5//77 2//78
f 3//79 14//80 9//81
f 4//82 18//83 13//84
f 7//85 22//86 20//87
f 8//88 11//89 21//90
f 16//91 19//92 23//93
f 12//94 15//95 24//96
f 25//97 28//98 27//99 26//100
f 31//101 30//102 29//103 32//104
f 47//105 46//106 45//107 48//108
f 37//109 40//110 39//111 38//112
f 44//113 43//114 42//115 41//116
f 34//117 33//118 36//119 35//120
f 27//121 33//122 34//123 26//124
f 28//125 37//126 38//127 27//128
f 25//129 41//130 42//131 28//132
f 26//133 29//134 30//135 25//136
f 31//137 44//138 41//139 30//140
f 32//141 45//142 46//143 31//144
f 29//145 34//146 35//147 32//148
f 36//149 48//150 45//151 35//152
f 33//153 38//154 39//155 36//156
f 40//157 47//158 48//159 39//160
f 37//161 42//162 43//163 40//164
f 44//165 46//166 47//167 43//168
f 25//169 30//170 41//171
f 34//172 29//173 26//174
f 27//175 38//176 33//177
f 28//178 42//179 37//180
f 31//181 46//182 44//183
f 32//184 35//185 45//186
f 40//187 43//188 47//189
f 36//190 39//191 48//192
f 49//193 52//194 51//195 50//196
f 55//197 54//198 53//199 56//200
f 71//201 70//202 69//203 72//204
f 61//205 64//206 63//207 62//208
f 68//209 67//210 66//211 65//212
f 58//213 57//214 60//215 59//216
f 51//217 57//218 58//219 50//220
f 52//221 61//222 62//223 51//224
f 49//225 65//226 66//227 52//228
f 50//229 53//230 54//231 49//232
f 55//233 68//234 65//235 54//236
f 56//237 69//238 70//239 55//240
f 53//241 58//242 59//243 56//244
f 60//245 72//246 69//247 59//248
f 57//249 62//250 63//251 60//252
f 64//253 71//254 72//255 63//256
f 61//257 66//258 67//259 64//260
f 68//261 70//262 71//263 67//264
f 49//265 54//266 65//267
f 58//268 53//269 50//270
f 51//271 62//272 57//273
f 52//274 66//275 61//276
f 55//277 70//278 68//279
f 56//280 59//281 69//282
f 64//283 67//284 71//285
f 60//286 63//287 72//288
f 73//289 76//290 75//291 74//292
f 79//293 78//294 77//295 80//296
f 95//297 94//298 93//299 96//300
f 85//301 88//302 87//303 86//304
f 92//305 91//306 90//307 89//308
f 82//309 81//310 84//311 83//312
f 75//313 81//314 82//315 74//316
f 76//317 85//318 86//319 75//320
f 73//321 89//322 90//323 76//324
f 74//325 77//326 78//327 73//328
f 79//329 92//330 89//331 78//332
f 80//333 93//334 94//335 79//336
f 77//337 82//338 83//339 80//340
f 84//341 96//342 93//343 83//344
f 81//345 86//346 87//347 84//348
f 88//349 95//350 96//351 87//352
f 85//353 90//354 91//355 88//356
f 92//357 94//358 95//359 91//360
f 73//361 78//362 89//363
f 82//364 77//365 74//366
f 75//367 86//368 81//369
f 76//370 90//371 85//372
f 79//373 94//374 92//375
f 80//376 83//377 93//378
f 88//379 91//380 95//381
f 84//382 87//383 96//384
